<svg width="160" height="151" viewBox="0 0 160 151" fill="none" xmlns="http://www.w3.org/2000/svg">
<path d="M58.5887 0C59.7017 0.127 59.7017 0.127005 61.1167 1.14301C62.0897 2.60501 62.0897 2.605 62.1727 3.746C62.1067 4.548 62.1067 4.548 61.9717 4.972C61.8007 5.476 61.6286 5.754 61.3696 6.101C60.9286 6.695 59.7386 7.93401 57.3516 10.32C42.7726 24.875 30.8847 41.775 19.5067 58.864L19.4567 58.959C19.3667 59.129 19.2396 59.374 19.0846 59.674C18.7366 60.345 18.2826 61.229 17.7856 62.2L16.8427 64.055C20.4527 60.07 23.8947 55.937 27.3297 51.801C28.1857 50.766 29.0656 49.695 29.9776 48.579C32.0096 46.094 34.0697 43.551 36.7477 40.226C37.2317 39.626 37.7207 39.017 38.3667 38.215C39.1627 37.226 39.5876 36.698 39.9426 36.256C41.1956 34.699 42.0897 33.59 42.9397 32.539C47.5437 26.845 50.2117 23.656 51.9867 21.794C55.4107 18.203 58.9157 14.901 63.9377 10.437C64.7187 9.712 64.3386 10.076 65.0806 9.34599C65.0866 9.33899 65.0936 9.33201 65.1006 9.32401C66.2226 8.18201 67.3456 7.039 68.4686 5.897C68.9026 5.462 68.9206 5.44499 69.1406 5.27499C69.2646 5.17799 69.2647 5.178 69.6317 4.952C69.9317 4.783 69.9316 4.78301 70.9686 4.51801L71.3596 4.489L71.8546 4.51199L72.4657 4.632L73.5316 5.127L74.7086 6.401L75.0116 7.099C75.1826 9.092 75.1826 9.09201 74.9166 9.64301L74.8936 9.69299C77.1186 7.85599 79.6406 6.27399 82.5546 5.97099C84.6226 5.97099 86.6997 7.22701 86.6967 9.96001C86.6957 11.207 86.2866 11.987 85.5606 12.935C84.8486 13.805 85.2537 13.336 84.3297 14.327L87.3416 11.999C88.1176 11.417 89.2337 10.659 90.0887 10.158C90.8617 9.706 91.4446 9.42401 92.1426 9.26401C92.6136 9.15701 93.0957 9.116 93.6617 9.2C94.8047 9.369 95.8936 10.032 96.5136 11.228C96.9616 12.042 96.9997 12.966 96.8437 13.861C101.066 10.53 105.554 7.533 110.483 5.36C111.06 5.129 111.591 4.988 112.249 4.98C114.022 4.96 115.786 6.091 116.142 8.201C116.321 9.261 116.108 10.012 115.715 10.79C115.554 11.108 115.366 11.403 115.14 11.715C114.612 12.445 113.902 13.248 112.608 14.637C112.551 14.699 112.551 14.699 112.493 14.761C110.88 16.491 110.707 16.68 110.385 17.074C107.96 20.05 105.882 22.28 101.172 27.113C101.151 27.135 101.151 27.135 101.129 27.156C99.3916 28.942 100.368 27.936 98.2026 30.178C105.865 23.274 113.701 16.567 121.603 9.939L121.632 9.912C121.955 9.61 122.497 9.15301 123.125 8.63901C123.351 8.45401 123.559 8.286 123.682 8.19C123.732 8.151 123.732 8.15099 123.806 8.09399C123.854 8.05699 123.854 8.057 124.053 7.923C124.149 7.862 124.149 7.862 124.381 7.737C124.554 7.651 124.554 7.65101 125.058 7.47501L125.411 7.395L126.357 7.349L128.843 8.567L129.806 11.362L129.584 12.388L129.427 12.752L129.298 12.99C129.242 13.082 129.242 13.082 129.15 13.221C128.9 13.549 128.9 13.549 128.797 13.657C128.51 13.937 128.51 13.937 128.468 13.969C128.412 14.017 128.412 14.017 128.35 14.068L126.586 15.548C123.494 18.433 120.552 21.473 117.601 24.502C117.524 24.581 117.524 24.581 117.447 24.661C116.781 25.346 116.428 25.709 116.027 26.12C112.656 29.577 110 32.432 104.113 38.858C104.088 38.886 104.088 38.886 104.062 38.914C103.153 39.906 103.623 39.393 102.653 40.452C110.284 33.566 118.251 27.067 126.227 20.589C126.417 20.435 126.687 20.207 127.071 19.877C127.281 19.696 128.084 19.002 128.221 18.885C128.268 18.844 128.268 18.844 128.316 18.803C129.428 17.846 130.127 17.267 130.69 16.857C130.921 16.689 131.132 16.548 131.352 16.421C131.538 16.314 131.728 16.218 131.944 16.131C132.427 15.938 132.922 15.819 133.577 15.847C135.096 15.913 136.538 16.883 137.039 18.524C137.321 19.449 137.235 20.175 137 20.879C136.847 21.337 136.659 21.676 136.4 22.064C133.233 26.711 129.155 30.632 125.06 34.448C125.93 33.707 126.813 32.981 127.698 32.258C129.15 31.084 130.54 29.997 131.878 28.996C138.339 24.163 143.188 21.511 147.06 21.511C148.647 21.511 150.242 22.388 150.823 24.237C151.181 25.378 151.013 26.269 150.627 27.149C150.352 27.774 149.965 28.337 149.412 29.015C148.694 29.896 147.653 31.006 146.314 32.346C146.148 32.512 145.977 32.682 145.802 32.855C144.511 34.131 141.675 36.829 141.795 36.709C136.732 41.736 131.757 46.849 126.825 52.005C131.69 48.622 136.24 43.935 142.046 42.147C142.652 41.996 143.206 41.929 143.865 42.015C145.57 42.237 147.113 43.527 147.262 45.578C147.34 46.658 147.048 47.403 146.573 48.141C146.377 48.446 146.154 48.724 145.893 49.012C145.288 49.678 144.495 50.39 143.071 51.598C142.998 51.661 142.998 51.661 142.924 51.723C141.111 53.259 140.944 53.402 140.586 53.751C138.162 56.088 135.782 58.469 133.406 60.855C135.741 58.914 134.129 60.243 138.284 56.918C138.633 56.641 139.107 56.25 139.79 55.676C140.102 55.414 141.433 54.289 141.769 54.006C141.875 53.917 141.875 53.917 141.981 53.827C143.837 52.269 145.044 51.3 145.97 50.666C146.319 50.427 146.633 50.231 146.946 50.07C147.755 49.652 148.425 49.434 149.492 49.572C150.841 49.746 152.062 50.624 152.588 52.011C152.924 52.897 152.899 53.666 152.711 54.403C152.565 54.973 152.338 55.432 152.013 55.96C147.747 62.939 141.933 68.75 136.178 74.49L139.04 71.973C139.53 71.551 142.47 68.554 142.947 68.09C144.477 66.602 145.82 65.444 147.171 64.52C150.103 62.512 152.943 61.692 155.783 62.828C157.393 63.472 158.264 64.994 158.226 66.553C158.208 67.268 158.031 67.834 157.756 68.401C157.493 68.945 157.127 69.489 156.617 70.148C155.84 71.153 154.64 72.524 152.898 74.416C151.397 76.045 149.502 78.052 146.775 80.908C145.192 82.565 138.732 89.305 138.334 89.721C137.274 90.857 136.26 92.034 135.238 93.205C137.164 91.669 135.95 92.632 138.89 90.328C139.945 89.505 143.092 87.767 147.6 85.424C149.322 84.529 151.058 83.645 152.393 82.983C153.055 82.655 153.599 82.39 153.991 82.207C154.22 82.1 154.405 82.017 154.562 81.951C154.707 81.891 154.835 81.843 154.99 81.794C155.192 81.729 155.192 81.729 155.729 81.638C156.161 81.587 156.161 81.587 157.21 81.769C157.971 82.033 157.971 82.033 158.932 82.853C159.756 84.066 159.756 84.066 159.9 85.368C159.38 89.235 151.855 96.282 149.107 99.242C150.342 98.773 149.421 99.088 151.965 98.642C154.025 98.437 156.031 99.155 156.765 101.568C157.235 103.114 156.865 104.28 156.095 105.576C155.464 106.637 154.515 107.768 152.979 109.415C152.849 109.555 152.713 109.7 152.567 109.855C152.134 110.313 151.699 110.771 151.266 111.23C153.686 110.726 152.627 110.704 154.435 110.961C156.181 111.416 157.36 112.893 157.491 114.632C157.559 115.529 157.37 116.293 157.026 117.091C155.873 119.5 154.089 121.54 152.398 123.581C154.084 124.454 153.346 123.907 154.632 125.189C155.727 126.502 155.852 127.982 155.492 129.475C155.301 130.269 154.96 131.075 154.483 131.962C153.776 133.276 152.741 134.808 151.403 136.583C151.055 137.045 150.688 137.521 150.303 138.012C149.005 139.664 145.941 143.346 145.928 143.363C144.665 145.005 142.311 145.312 140.669 144.049C139.027 142.787 138.72 140.432 139.983 138.79C140.844 137.738 141.717 136.696 142.575 135.641C140.843 137.27 141.766 136.387 139.815 138.298C138.4 139.708 133.906 144.363 133.171 145.093C132.089 146.169 131.316 146.871 130.636 147.352C129.836 147.918 129.139 148.261 128.086 148.311C125.806 148.344 124.186 146.786 123.981 144.544C122.128 146.645 120.016 148.379 117.153 148.639C114.883 148.639 112.832 147.635 112.387 145.016C112.11 143.386 112.639 142.189 113.632 140.841C114.514 139.643 115.67 138.487 118.024 136.304C118.124 136.212 118.124 136.212 118.223 136.12C120.583 133.935 121.323 133.219 121.874 132.545C124.89 128.86 127.556 125.939 133.147 120.047C133.433 119.745 133.433 119.745 133.719 119.443C135.366 117.719 136.981 115.977 138.61 114.234C137.024 115.498 138.171 114.564 135.272 117.16C132.277 119.931 129.109 123.13 125.588 126.898C122.327 130.388 112.614 141.244 111.91 142.01C106.235 148.193 104.124 150.105 101.32 150.105C99.7496 150.105 98.1967 149.175 97.6447 147.423C97.3287 146.42 97.4356 145.632 97.7156 144.853C97.9076 144.32 98.1686 143.874 98.5406 143.336C98.9946 142.68 99.6667 141.837 100.623 140.704C101.749 139.37 107.016 133.355 106.992 133.383C107.274 133.058 107.544 132.746 107.806 132.442C108.232 131.948 108.634 131.478 109.017 131.026C109.766 130.144 112.102 127.638 116.888 122.559C116.76 122.695 127.749 111.048 131.185 107.394C131.394 107.172 131.394 107.172 131.603 106.949C134.717 103.634 133.164 105.29 136.26 101.982C127.836 108.624 119.953 115.895 112.581 123.68C111.717 124.617 110.829 125.598 109.91 126.626C108.189 128.553 106.431 130.568 104.369 132.968C103.444 134.045 100.277 137.752 99.6327 138.502C98.0197 140.378 96.9597 141.58 96.1447 142.441C95.6197 142.996 95.1926 143.413 94.8076 143.733C94.4716 144.012 94.1517 144.236 93.7527 144.431C93.3287 144.639 92.8727 144.787 92.3127 144.834C91.2557 144.921 90.1456 144.589 89.2856 143.729C87.4726 141.916 87.7557 140.634 88.7477 138.591C89.0527 137.962 89.4976 137.222 90.0956 136.323C91.1286 134.771 92.6696 132.677 94.6906 130.066C98.2376 125.483 103.222 119.356 109.205 112.19C113.318 107.285 111.605 109.312 114.332 106.096C109.659 110.949 105.083 115.893 100.51 120.84C99.1026 122.367 97.6367 123.963 95.8567 125.904C94.8547 126.997 91.4257 130.738 91.1837 131.003C91.1247 131.067 88.5467 134.885 87.7437 136.022C87.3797 136.538 87.0306 137.021 86.6936 137.477C85.6206 138.925 84.6777 140.071 83.8127 140.931C81.9877 142.747 80.4636 143.649 78.1436 142.875C76.6706 142.384 75.4496 141.18 75.3306 139.311C75.2496 138.047 75.6666 137.168 76.3176 136.356C76.5816 136.027 76.8626 135.749 77.2116 135.44C77.3986 135.274 77.3866 135.285 77.8926 134.864C77.9876 134.785 78.0216 134.756 78.0726 134.712C78.2906 134.524 78.1996 134.607 78.3486 134.469C82.0866 128.67 86.2447 123.16 90.4297 117.682C91.5487 116.225 92.4506 115.045 94.4476 112.428C94.4676 112.401 94.4676 112.401 94.4886 112.374C97.5716 108.339 100.645 104.296 103.8 100.316C99.9147 104.757 96.0356 109.203 92.1566 113.649L92.1277 113.681C83.5697 123.49 79.3197 128.351 75.4397 132.751C73.0107 135.507 71.1316 137.619 69.7926 139.097C69.0646 139.9 68.4937 140.518 68.0757 140.956C67.8367 141.206 67.6406 141.404 67.4736 141.563C66.6696 142.328 66.5586 142.418 65.5786 142.663C64.8936 142.834 64.2506 142.898 63.5136 142.766C61.9596 142.488 60.6306 141.332 60.3046 139.615C60.0096 138.066 60.4187 137.173 61.2867 135.933C61.8587 135.115 62.4136 134.488 64.0956 132.665C64.1166 132.642 64.1166 132.642 64.1386 132.618C65.3946 131.257 65.9786 130.588 66.2536 130.181C67.5606 128.253 68.8557 126.316 70.1207 124.36C70.1887 124.121 70.1386 124.228 70.2646 124.033C70.3736 123.84 70.3736 123.84 70.4496 123.721C70.5336 123.59 70.6286 123.455 70.7216 123.332C70.8006 123.23 70.8006 123.23 70.9216 123.085C71.0926 122.867 70.9726 123.005 71.3226 122.712L71.5396 122.443C72.6766 121.021 74.8086 118.248 78.0966 113.895C86.0806 103.133 94.6767 92.858 103.352 82.654C94.8117 90.757 98.6236 87.087 91.8876 93.635C86.2356 99.222 88.9247 96.527 83.8127 101.712C76.4707 110.751 80.0286 106.312 73.1326 115.022C70.1916 118.586 67.2507 122.15 64.2977 125.704C64.2747 125.757 64.2936 125.713 64.2316 125.832C64.1456 125.992 64.0576 126.135 63.9496 126.297C63.8036 126.519 63.5986 126.808 63.3196 127.189C62.0906 128.867 59.2596 132.538 54.4256 138.7C53.9916 139.254 53.6297 139.805 52.0907 142.22C52.0097 142.348 52.0096 142.348 51.9276 142.476C50.5696 144.604 49.7856 145.747 49.0026 146.632C47.9216 147.853 47.0577 148.515 45.3857 148.532C43.6587 148.551 42.2896 147.517 41.6716 146.099C41.3706 145.408 41.2746 144.746 41.2746 144.009C43.2476 130.753 69.5027 105.541 78.2737 96.636C88.9597 83.345 100.149 70.468 111.413 57.667C115.663 52.917 113.143 55.703 119.012 49.343C92.4347 70.017 69.3747 94.572 48.4007 120.794C46.0947 123.97 43.8017 127.156 41.5087 130.342C40.9967 131.053 40.9967 131.053 40.4847 131.765C38.8337 134.06 37.7456 135.57 36.6296 137.115C36.4436 137.374 36.1257 137.827 35.6937 138.449C35.6857 138.462 35.6857 138.462 35.6767 138.475C35.4417 138.814 34.7557 139.807 34.7007 139.885C34.5217 140.145 34.4707 140.217 34.4047 140.304C34.3777 140.351 34.3777 140.351 33.9477 140.809C33.9037 140.85 33.9037 140.85 33.7587 140.973L33.6106 141.086L33.2517 141.317L32.1306 141.732L28.1216 139.863L27.6926 137.531L27.7757 137.112L27.8266 136.933L27.8496 136.862C28.0786 136.305 28.0786 136.305 28.1386 136.212C28.2506 136.024 28.2506 136.024 28.2786 135.982C28.3386 135.89 28.3386 135.89 28.4166 135.772C32.9086 129.16 37.4106 122.534 42.4056 116.286C45.8406 111.53 49.3446 106.826 52.8906 102.153L55.0887 99.305C42.6457 113.701 48.2916 106.909 38.0456 119.594C36.1496 122.255 34.2337 124.901 32.3187 127.548C32.1867 127.731 32.1866 127.731 32.0546 127.914C29.6396 131.247 27.2286 134.584 24.8516 137.944C24.8166 138.05 24.8427 137.972 24.7737 138.18C24.2577 139.741 23.9506 140.508 23.3736 141.356C21.9236 143.485 19.2776 144.35 16.8496 142.731C14.3906 141.092 14.4046 138.308 15.8866 136.35C16.3856 135.69 16.7497 135.365 17.8377 134.475C17.9067 134.418 17.9067 134.418 17.9737 134.363L18.2376 134.143C19.0706 132.279 18.6336 133.029 19.4216 131.826C23.5307 126.164 27.7586 120.591 32.0586 115.073L32.8487 113.982C31.2227 116.133 29.3177 118.049 27.4457 119.979C27.2737 120.151 27.1417 120.277 26.9937 120.401C26.8947 120.483 26.8946 120.483 26.7246 120.609C26.4996 120.773 26.4997 120.773 25.8167 121.086C25.2377 121.293 25.2376 121.293 23.8906 121.257C21.9476 120.526 21.9476 120.526 20.9536 118.687C20.8216 116.522 20.8217 116.522 21.0857 116.073C21.2107 115.78 21.3497 115.549 21.4607 115.392C21.5537 115.258 21.5537 115.258 21.6267 115.159C21.7067 115.053 21.8007 114.933 21.9157 114.789C22.0907 114.57 22.3147 114.296 22.6447 113.897C22.7507 113.768 23.3516 113.042 23.5266 112.831C23.5516 112.8 23.5516 112.8 23.5766 112.77C24.2966 111.897 24.7606 111.32 25.0076 110.988C26.8986 108.439 28.3436 106.323 31.5456 101.5C31.5486 101.495 31.5486 101.495 31.5526 101.489C35.0466 96.226 36.6496 93.889 38.8046 91.028C53.3276 71.839 68.1226 52.819 84.0226 34.74C68.1156 49.69 53.2967 65.745 38.7387 81.995C35.5957 85.531 33.2506 88.584 28.1366 95.582C28.1216 95.603 28.1216 95.603 28.1066 95.623C27.3676 96.63 26.6366 97.641 25.8926 98.644C24.1486 101.404 22.4516 104.193 20.7056 106.952C20.1806 107.774 19.6776 108.552 19.1906 109.292C14.0106 117.163 11.5006 120.198 7.54865 120.16L6.28466 119.74L5.15764 118.797L4.55565 117.727L4.42266 117.271C4.31866 115.985 4.31865 115.985 4.44965 115.512C4.63265 114.952 4.63265 114.952 4.72565 114.772C4.84665 114.545 4.84665 114.545 4.89765 114.463C4.96865 114.352 4.96865 114.352 5.00565 114.297C5.07065 114.203 5.07065 114.203 5.13665 114.11C5.22165 113.99 5.34264 113.821 5.50064 113.604C5.79464 113.198 6.22065 112.615 6.76165 111.876C7.76865 110.501 9.15765 108.613 10.6787 106.55C11.9747 104.793 11.4576 105.493 12.2296 104.449C10.4526 104.972 11.2567 104.851 9.84066 104.951C7.80066 104.951 5.86864 103.981 5.43564 101.505C5.33564 100.022 5.26765 100.797 5.73465 99.189C4.59665 98.61 4.09165 97.647 3.64365 96.523C2.69365 93.672 4.24865 90.877 9.19365 83.617C9.48065 83.195 9.77865 82.762 10.0877 82.316C10.7747 81.328 11.4726 80.346 12.1686 79.363C10.5266 80.802 8.63565 81.947 6.54865 82.578C4.15065 83.111 2.27265 81.424 1.97565 79.423C1.88765 78.827 1.93265 78.388 2.03965 77.902C2.12165 77.53 2.24364 77.157 2.41864 76.701C2.66864 76.046 3.05364 75.161 3.57164 74.035C4.45064 72.121 5.71264 69.518 7.25464 66.417C9.63264 61.638 12.8846 55.279 13.1626 54.859C17.3996 48.496 14.9216 52.186 20.6296 43.809L20.5176 43.925C20.3746 44.081 20.1786 44.294 19.9146 44.581C19.4816 45.05 19.0067 45.562 18.4957 46.109C17.0547 47.652 15.5966 49.187 14.1996 50.624C13.9736 50.857 13.7507 51.085 13.5317 51.309C11.6517 53.227 10.0577 54.78 8.81266 55.884C8.03166 56.578 7.37865 57.104 6.80565 57.482C6.33265 57.794 5.88865 58.029 5.36165 58.195C3.82465 58.677 2.04966 58.453 0.855655 56.662C-0.661345 54.385 -0.0253577 52.383 1.69864 49.507C2.61064 47.985 3.92865 46.184 5.60865 44.102C6.03865 43.571 6.48865 43.024 6.96065 42.461C8.81265 40.251 12.9556 35.601 12.8116 35.776C15.3166 32.734 17.8907 29.751 20.4697 26.773C17.7887 29.079 15.1217 31.401 12.4527 33.721C10.5977 35.333 9.57965 36.214 8.77965 36.894C8.29265 37.308 7.91964 37.62 7.63864 37.844C7.46064 37.987 7.31166 38.102 7.17266 38.201C6.16166 38.923 6.06566 38.98 4.85566 38.98C2.44566 38.98 0.796653 37.049 0.831653 34.856C0.844653 34.019 1.06165 33.307 1.43065 32.488C1.86565 31.519 2.58464 30.308 3.60164 28.776C5.22064 26.338 7.56365 23.138 10.7596 18.944C10.9816 18.653 11.2087 18.356 11.4397 18.053C12.8787 16.172 17.3877 10.339 17.8787 9.69901C19.6557 7.38301 20.7757 5.856 20.8427 5.72C21.7567 3.862 24.0046 3.097 25.8626 4.011C27.7206 4.925 28.4866 7.17301 27.5716 9.03101C26.5976 10.744 25.3437 12.285 24.1487 13.847C28.3567 10.626 32.2707 6.791 37.0387 4.37C37.7127 4.052 38.3306 3.83799 39.0026 3.74899C40.5636 3.54299 42.1976 4.045 43.1706 5.717C44.2976 7.652 43.8607 9.044 42.6317 11.203C41.6727 12.89 40.4776 14.425 39.3066 15.965L41.1016 14.297C47.3176 8.537 51.9706 4.28501 54.3136 2.23801C55.0036 1.63601 55.5047 1.21401 55.8557 0.945007C55.9867 0.845007 56.1076 0.756996 56.2336 0.673996C56.5886 0.438996 56.8727 0.282999 57.3767 0.139999C57.8007 0.0279994 57.8007 0.028 58.5887 0ZM28.4366 135.758C28.4356 135.759 28.4357 135.759 28.4347 135.76C28.4287 135.769 28.4226 135.779 28.4166 135.789L28.4366 135.758ZM60.4867 77.803L54.5777 84.333C51.0587 88.314 48.4756 91.866 42.8416 100.14C42.8366 100.147 42.8367 100.147 42.8317 100.155C41.2907 102.411 41.9776 101.412 40.7746 103.153C56.2536 82.845 49.5807 91.215 60.4867 77.803ZM123.549 8.30701C123.519 8.33201 123.489 8.357 123.459 8.382L123.458 8.383L123.549 8.30701Z" fill="url(#paint0_linear_207_88)"/>
<defs>
<linearGradient id="paint0_linear_207_88" x1="23.4166" y1="21.982" x2="136.483" y2="128.122" gradientUnits="userSpaceOnUse">
<stop offset="0.381" stop-color="#769BF2"/>
<stop offset="1" stop-color="#15CA82"/>
</linearGradient>
</defs>
</svg>
